<?xml version="1.0" encoding="utf-8"?>
<!-- Generator: Adobe Illustrator 16.0.0, SVG Export Plug-In . SVG Version: 6.00 Build 0)  -->
<!DOCTYPE svg PUBLIC "-//W3C//DTD SVG 1.1//EN" "http://www.w3.org/Graphics/SVG/1.1/DTD/svg11.dtd">
<svg version="1.1" id="Layer_1" xmlns="http://www.w3.org/2000/svg" xmlns:xlink="http://www.w3.org/1999/xlink" x="0px" y="0px"
	 width="500px" height="172.034px" viewBox="0 0 500 172.034" enable-background="new 0 0 500 172.034" xml:space="preserve">
<text transform="matrix(1 0 0 1 31.5762 110.0889)"><tspan x="0" y="0" fill="#93014A" font-family="'MontserratAlternates-Regular'" font-size="65.9143">Astro</tspan><tspan x="178.362" y="0" font-family="'MontserratAlternates-Bold'" font-size="65.9143">GPS</tspan></text>
<g>
	<g>
		<polygon points="414.131,128.362 382.193,131.928 380.825,119.687 369.665,116.78 377.249,87.655 373.881,57.508 385.436,56.218 
			388.534,44.312 419.601,52.403 455.07,48.445 456.587,62.041 467.59,64.906 460.115,93.608 463.384,122.862 452.171,124.113 
			448.721,137.373 		"/>
		<path fill="#930F4A" d="M389.966,46.751l29.489,7.681l33.85-3.777l1.447,12.975l10.398,2.708l-7.063,27.125l3.087,27.634
			l-10.592,1.182l-3.293,12.655l-33.013-8.6l-30.317,3.385l-1.299-11.62l-10.556-2.75l7.173-27.548l-3.187-28.527l10.934-1.221
			L389.966,46.751 M387.103,41.872l-1.008,3.872l-2.248,8.639l-8.2,0.916l-3.975,0.444l0.443,3.975l3.104,27.792l-6.986,26.832
			l-1.008,3.871l3.871,1.008l7.894,2.057l0.993,8.887l0.444,3.975l3.975-0.443l29.582-3.303l32.296,8.413l3.872,1.009l1.008-3.873
			l2.6-9.992l7.857-0.876l3.976-0.443l-0.443-3.977l-3.005-26.898l6.877-26.408l1.008-3.871l-3.871-1.008l-7.736-2.015
			l-1.142-10.241l-0.443-3.976l-3.976,0.444l-33.114,3.695l-28.773-7.494L387.103,41.872L387.103,41.872z"/>
	</g>
	<path fill="#FFFFFF" d="M440.639,77.758c-0.475-2.683-1.513-5.134-3.063-7.374c-0.875-1.261-1.906-2.391-2.95-3.508
		c-1.574-1.689-3.389-3.074-5.417-4.182c-3.103-1.696-6.429-2.582-9.954-2.739c-0.922-0.04-1.842-0.007-2.764,0.07
		c-1.296,0.11-2.577,0.325-3.831,0.662c-4.299,1.158-7.955,3.374-10.932,6.69c-1.271,1.414-2.332,2.977-3.176,4.681
		c-1.508,3.042-2.248,6.264-2.234,9.658c0.003,0.448,0.043,0.892,0.032,1.338c-0.024,1.124,0.051,2.242,0.207,3.355
		c0.27,1.895,0.757,3.733,1.41,5.53c0.868,2.391,2,4.656,3.274,6.856c1.512,2.61,3.21,5.099,4.978,7.541
		c1.677,2.318,3.417,4.586,5.146,6.861c0.732,0.962,1.451,1.932,2.197,2.882c0.813,1.032,1.702,1.996,2.592,2.97
		c0.822,0.894,1.675,1.759,2.477,2.697c0.068-0.074,0.122-0.129,0.17-0.186c0.958-1.133,1.915-2.266,2.874-3.397
		c0.553-0.653,1.122-1.287,1.649-1.96c0.99-1.272,1.963-2.561,2.935-3.852c2.125-2.818,4.192-5.679,6.116-8.635
		s3.702-5.99,5.18-9.195c1.013-2.188,1.869-4.431,2.48-6.766c0.545-2.097,0.881-4.225,0.895-6.396
		C440.941,80.15,440.849,78.949,440.639,77.758z"/>
</g>
</svg>
